<?xml version="1.0" encoding="utf-8"?>
<!-- Generator: Adobe Illustrator 25.4.1, SVG Export Plug-In . SVG Version: 6.00 Build 0)  -->
<svg version="1.1" id="Layer_1" xmlns="http://www.w3.org/2000/svg" xmlns:xlink="http://www.w3.org/1999/xlink" x="0px" y="0px"
	 viewBox="0 0 24 24" style="enable-background:new 0 0 24 24;" xml:space="preserve">
<style type="text/css">
	.st0{fill:#4C545D;}
</style>
<path class="st0" d="M19.6,8c0,0.2,0,0.3,0,0.5c0,5.3-4.1,11.5-11.5,11.5c-2.3,0-4.4-0.7-6.2-1.8c0.3,0,0.6,0,1,0
	c1.8,0,3.6-0.6,5-1.7c-1.7,0-3.2-1.2-3.8-2.8c0.2,0,0.5,0.1,0.8,0.1c0.4,0,0.7-0.1,1.1-0.1c-1.9-0.4-3.2-2-3.2-4V9.6
	c0.5,0.3,1.2,0.5,1.8,0.5c-1.1-0.7-1.8-2-1.8-3.4c0-0.7,0.2-1.4,0.5-2c2,2.5,5.1,4,8.3,4.2c-0.1-0.3-0.1-0.6-0.1-0.9
	c0-2.2,1.8-4,4-4c0,0,0,0,0,0c1.2,0,2.2,0.5,2.9,1.3c0.9-0.2,1.8-0.5,2.6-1c-0.3,0.9-0.9,1.7-1.8,2.2c0.8-0.1,1.6-0.3,2.3-0.6
	C21.1,6.7,20.4,7.4,19.6,8z"/>
</svg>
