<?xml version="1.0" encoding="utf-8"?>
<!-- Generator: Adobe Illustrator 25.4.1, SVG Export Plug-In . SVG Version: 6.00 Build 0)  -->
<svg version="1.1" id="Layer_1" xmlns="http://www.w3.org/2000/svg" xmlns:xlink="http://www.w3.org/1999/xlink" x="0px" y="0px"
	 viewBox="0 0 24 24" style="enable-background:new 0 0 24 24;" xml:space="preserve">
<style type="text/css">
	.st0{fill:#4C545D;}
</style>
<path class="st0" d="M20,3H4C3.4,3,3,3.4,3,4v16c0,0.6,0.4,1,1,1h8.6v-7h-2.3v-2.7h2.3v-2c0-2.3,1.4-3.6,3.5-3.6
	c0.7,0,1.4,0,2.1,0.1v2.4h-1.4c-1.1,0-1.3,0.5-1.3,1.3v1.7h2.7L17.8,14h-2.3v7H20c0.6,0,1-0.4,1-1V4C21,3.4,20.6,3,20,3z"/>
</svg>
